<svg width="30" height="30" viewBox="0 0 30 30" fill="none" xmlns="http://www.w3.org/2000/svg">
<path fill-rule="evenodd" clip-rule="evenodd" d="M6.46544 0.4705C12.1378 -0.156833 17.8623 -0.156833 23.5347 0.4705C26.6336 0.815877 29.1319 3.25144 29.4958 6.35657C30.1681 12.0987 30.1681 17.8995 29.4958 23.6417C29.1319 26.7468 26.6336 29.1824 23.5363 29.5294C17.8634 30.1569 12.1384 30.1569 6.46544 29.5294C3.36654 29.1824 0.868169 26.7468 0.504265 23.6433C-0.168088 17.9006 -0.168088 12.0993 0.504265 6.35657C0.868169 3.25144 3.36654 0.815877 6.46544 0.4705ZM23.1593 5.22432C22.7265 5.22432 22.3115 5.39596 22.0054 5.70148C21.6994 6.00701 21.5275 6.42138 21.5275 6.85346C21.5275 7.28553 21.6994 7.69991 22.0054 8.00543C22.3115 8.31095 22.7265 8.48259 23.1593 8.48259C23.5921 8.48259 24.0072 8.31095 24.3132 8.00543C24.6193 7.69991 24.7912 7.28553 24.7912 6.85346C24.7912 6.42138 24.6193 6.00701 24.3132 5.70148C24.0072 5.39596 23.5921 5.22432 23.1593 5.22432ZM7.24873 14.9991C7.24873 12.9468 8.06538 10.9785 9.51904 9.52727C10.9727 8.07603 12.9443 7.26074 15 7.26074C17.0558 7.26074 19.0274 8.07603 20.4811 9.52727C21.9347 10.9785 22.7514 12.9468 22.7514 14.9991C22.7514 17.0515 21.9347 19.0198 20.4811 20.471C19.0274 21.9222 17.0558 22.7375 15 22.7375C12.9443 22.7375 10.9727 21.9222 9.51904 20.471C8.06538 19.0198 7.24873 17.0515 7.24873 14.9991Z" fill="#4D403E"/>
</svg>
