<svg width="30" height="31" viewBox="0 0 30 31" fill="none" xmlns="http://www.w3.org/2000/svg">
<path fill-rule="evenodd" clip-rule="evenodd" d="M15.6776 29H14.337L13.1085 27.5617C11.4534 25.6235 9.53512 23.1429 8.01778 20.5701C6.54553 18.0741 5.25 15.1645 5.25 12.4545C5.25 7.01227 9.38766 3 15 3C20.6123 3 24.75 7.01227 24.75 12.4545C24.75 15.1786 23.4142 18.0895 21.931 20.5701C20.4003 23.1299 18.482 25.6023 16.8891 27.531L15.6776 29ZM19.875 12.4545C19.875 13.7083 19.3614 14.9107 18.4471 15.7972C17.5329 16.6838 16.2929 17.1818 15 17.1818C13.7071 17.1818 12.4671 16.6838 11.5529 15.7972C10.6386 14.9107 10.125 13.7083 10.125 12.4545C10.125 11.2008 10.6386 9.99839 11.5529 9.11186C12.4671 8.22532 13.7071 7.72727 15 7.72727C16.2929 7.72727 17.5329 8.22532 18.4471 9.11186C19.3614 9.99839 19.875 11.2008 19.875 12.4545Z" fill="#4D403E"/>
<path d="M15 14.8191C14.3535 14.8191 13.7335 14.57 13.2764 14.1268C12.8193 13.6835 12.5625 13.0823 12.5625 12.4554C12.5625 11.8286 12.8193 11.2274 13.2764 10.7841C13.7335 10.3408 14.3535 10.0918 15 10.0918C15.6465 10.0918 16.2665 10.3408 16.7236 10.7841C17.1807 11.2274 17.4375 11.8286 17.4375 12.4554C17.4375 13.0823 17.1807 13.6835 16.7236 14.1268C16.2665 14.57 15.6465 14.8191 15 14.8191Z" fill="#4D403E"/>
</svg>
