<svg width="30" height="31" viewBox="0 0 30 31" fill="none" xmlns="http://www.w3.org/2000/svg">
<path d="M25.9857 9.38235C26.0267 9.55294 25.9749 9.74118 25.8883 9.88824L23.1264 14.6059C23.0239 14.7882 22.8087 14.8882 22.6288 14.8882C22.5776 14.8882 22.4341 14.8765 22.3783 14.8588L20.1646 14.2353V25.4118C20.1646 25.7529 19.9545 26 19.6522 26H8.8914C8.58907 26 8.37898 25.7529 8.37898 25.4118V14.2353L6.39079 14.8647C6.1602 14.9471 5.96036 14.8412 5.83225 14.6118L3.09081 9.90588C3.0037 9.75294 2.97808 9.58235 3.01907 9.41176C3.05494 9.23529 3.16255 9.11765 3.3009 9.03529L8.8914 6H11.4535C11.7558 6 11.9659 6.24118 11.9659 6.58824C11.9659 7.8 13.4468 8.65882 14.5024 8.65882C15.558 8.65882 17.0901 7.80588 17.0901 6.58824C17.0901 6.24706 17.3002 6 17.6025 6H20.1646L25.6988 8.97647C25.8422 9.05882 25.9447 9.20588 25.9857 9.38235Z" fill="#4D403E"/>
</svg>
