<svg width="30" height="31" viewBox="0 0 30 31" fill="none" xmlns="http://www.w3.org/2000/svg">
<path d="M15 4.66699C20.523 4.66699 25 9.14399 25 14.667C25 20.19 20.523 24.667 15 24.667C9.477 24.667 5 20.19 5 14.667C5 9.14399 9.477 4.66699 15 4.66699ZM15 8.66699C14.7348 8.66699 14.4804 8.77235 14.2929 8.95989C14.1054 9.14742 14 9.40178 14 9.66699V14.667C14.0001 14.9322 14.1055 15.1865 14.293 15.374L17.293 18.374C17.4816 18.5562 17.7342 18.6569 17.9964 18.6547C18.2586 18.6524 18.5094 18.5472 18.6948 18.3618C18.8802 18.1764 18.9854 17.9256 18.9877 17.6634C18.99 17.4012 18.8892 17.1486 18.707 16.96L16 14.253V9.66699C16 9.40178 15.8946 9.14742 15.7071 8.95989C15.5196 8.77235 15.2652 8.66699 15 8.66699Z" fill="#4D403E"/>
</svg>
